<?xml version="1.0" encoding="UTF-8"?>
<svg id="Layer_1" data-name="Layer 1" xmlns="http://www.w3.org/2000/svg" viewBox="0 0 340.01 282.61">
  <defs>
    <style>
      .cls-1 {
        fill: #5992be;
      }

      .cls-1, .cls-2, .cls-3, .cls-4, .cls-5, .cls-6, .cls-7, .cls-8, .cls-9, .cls-10, .cls-11, .cls-12, .cls-13, .cls-14, .cls-15, .cls-16, .cls-17, .cls-18, .cls-19, .cls-20, .cls-21, .cls-22, .cls-23, .cls-24, .cls-25, .cls-26, .cls-27, .cls-28, .cls-29, .cls-30, .cls-31, .cls-32, .cls-33, .cls-34, .cls-35, .cls-36, .cls-37, .cls-38, .cls-39, .cls-40, .cls-41, .cls-42, .cls-43, .cls-44, .cls-45, .cls-46, .cls-47, .cls-48, .cls-49, .cls-50, .cls-51, .cls-52, .cls-53, .cls-54, .cls-55, .cls-56, .cls-57, .cls-58, .cls-59, .cls-60, .cls-61, .cls-62, .cls-63, .cls-64, .cls-65, .cls-66, .cls-67, .cls-68, .cls-69, .cls-70, .cls-71, .cls-72, .cls-73, .cls-74, .cls-75, .cls-76, .cls-77, .cls-78, .cls-79, .cls-80, .cls-81, .cls-82, .cls-83, .cls-84, .cls-85, .cls-86, .cls-87, .cls-88, .cls-89, .cls-90, .cls-91, .cls-92, .cls-93, .cls-94, .cls-95, .cls-96, .cls-97, .cls-98, .cls-99, .cls-100, .cls-101, .cls-102, .cls-103, .cls-104, .cls-105, .cls-106, .cls-107, .cls-108, .cls-109, .cls-110, .cls-111, .cls-112, .cls-113, .cls-114, .cls-115, .cls-116, .cls-117, .cls-118, .cls-119, .cls-120, .cls-121, .cls-122, .cls-123, .cls-124, .cls-125 {
        stroke-width: 0px;
      }

      .cls-2 {
        fill: #2da5c7;
      }

      .cls-3 {
        fill: #4aadc2;
      }

      .cls-4 {
        fill: #24b1c8;
      }

      .cls-5 {
        fill: #3da7b2;
      }

      .cls-6 {
        fill: #5b60b7;
      }

      .cls-7 {
        fill: #28b9c9;
      }

      .cls-8 {
        fill: #24b1ca;
      }

      .cls-9 {
        fill: #4cb4c9;
      }

      .cls-10 {
        fill: #35bacd;
      }

      .cls-11 {
        fill: #20b8cd;
      }

      .cls-12 {
        fill: #43aec5;
      }

      .cls-13 {
        fill: #41a3c0;
      }

      .cls-14 {
        fill: #20bccd;
      }

      .cls-15 {
        fill: #26abc7;
      }

      .cls-16 {
        fill: #14c9ce;
      }

      .cls-17 {
        fill: #319dc6;
      }

      .cls-18 {
        fill: #53b5ca;
      }

      .cls-19 {
        fill: #604eae;
      }

      .cls-20 {
        fill: #20bacb;
      }

      .cls-21 {
        fill: #1db7cc;
      }

      .cls-126 {
        letter-spacing: 0em;
      }

      .cls-126, .cls-127, .cls-128, .cls-129, .cls-130 {
        font-family: AcuminConcept-Regular, 'Acumin Variable Concept';
        font-variation-settings: 'wght' 400, 'wdth' 100, 'slnt' 0;
      }

      .cls-127 {
        letter-spacing: 0em;
      }

      .cls-22 {
        fill: #3d98c0;
      }

      .cls-128 {
        letter-spacing: 0em;
      }

      .cls-23 {
        fill: #5166b7;
      }

      .cls-24 {
        fill: #36a3c1;
      }

      .cls-25 {
        fill: #13dcd1;
      }

      .cls-26 {
        fill: #36adc2;
      }

      .cls-27 {
        fill: #595cb6;
      }

      .cls-28 {
        fill: #12d4d0;
      }

      .cls-29 {
        fill: #4a80c0;
      }

      .cls-30 {
        fill: #4c70ba;
      }

      .cls-31 {
        fill: #4c79ba;
      }

      .cls-32 {
        fill: #3695bf;
      }

      .cls-33 {
        fill: #25a9c8;
      }

      .cls-34 {
        fill: #31b6c8;
      }

      .cls-35 {
        fill: #11ced1;
      }

      .cls-36 {
        fill: #7aaeca;
      }

      .cls-37 {
        fill: #499cc0;
      }

      .cls-38 {
        fill: #6a3fb0;
      }

      .cls-39 {
        fill: #4280c0;
      }

      .cls-40 {
        fill: #3c89c2;
      }

      .cls-41 {
        fill: #2db5c9;
      }

      .cls-42 {
        fill: #99afc4;
      }

      .cls-43 {
        fill: #19c9cd;
      }

      .cls-44 {
        fill: #4b70bc;
      }

      .cls-45 {
        fill: #2f9bc5;
      }

      .cls-46 {
        fill: #5f54b4;
      }

      .cls-47 {
        fill: #3a8cc2;
      }

      .cls-48 {
        fill: #2ea9c5;
      }

      .cls-49 {
        fill: #19c4cc;
      }

      .cls-50 {
        fill: #28a9c6;
      }

      .cls-51 {
        fill: #58b3cc;
      }

      .cls-52 {
        fill: #4a70bc;
      }

      .cls-53 {
        fill: #3c87c1;
      }

      .cls-54 {
        fill: #1abfcf;
      }

      .cls-55 {
        fill: #604eb1;
      }

      .cls-56 {
        fill: #585bb5;
      }

      .cls-57 {
        fill: #4779bb;
      }

      .cls-58 {
        fill: #18d6d2;
      }

      .cls-59 {
        fill: #3a8fc2;
      }

      .cls-60 {
        fill: #15d3d2;
      }

      .cls-61 {
        fill: #5695c6;
      }

      .cls-62 {
        fill: #19cbcf;
      }

      .cls-63 {
        fill: #18d2d1;
      }

      .cls-64 {
        fill: #29adc8;
      }

      .cls-129 {
        letter-spacing: 0em;
      }

      .cls-65 {
        fill: #31b4ca;
      }

      .cls-66 {
        fill: #11cece;
      }

      .cls-67 {
        fill: #3bb6cd;
      }

      .cls-68 {
        fill: #44abc4;
      }

      .cls-69 {
        fill: #6941b5;
      }

      .cls-70 {
        fill: #26b4cd;
      }

      .cls-71 {
        fill: #1cbecd;
      }

      .cls-72 {
        fill: #3393c4;
      }

      .cls-73 {
        fill: #29b4c8;
      }

      .cls-74 {
        fill: #22bdce;
      }

      .cls-75 {
        fill: #34a2c6;
      }

      .cls-76 {
        fill: #70b2cc;
      }

      .cls-77 {
        fill: #5e51b6;
      }

      .cls-78 {
        fill: #2bb7c9;
      }

      .cls-79 {
        fill: #36a2c3;
      }

      .cls-80 {
        fill: #24cacc;
      }

      .cls-81 {
        fill: #1ecbcd;
      }

      .cls-131 {
        letter-spacing: 0em;
      }

      .cls-131, .cls-132 {
        font-family: AcuminConcept-Bold, 'Acumin Variable Concept';
        font-variation-settings: 'wght' 700, 'wdth' 100, 'slnt' 0;
        font-weight: 700;
      }

      .cls-82 {
        fill: #4287bc;
      }

      .cls-83 {
        fill: #23c1cb;
      }

      .cls-84 {
        fill: #25dfd3;
      }

      .cls-85 {
        fill: #16c3ce;
      }

      .cls-86 {
        fill: #90b8cd;
      }

      .cls-87 {
        fill: #5072bb;
      }

      .cls-88 {
        fill: #2abccf;
      }

      .cls-89 {
        fill: #6a7bbd;
      }

      .cls-90 {
        fill: #407fbf;
      }

      .cls-91 {
        fill: #24c0ce;
      }

      .cls-92 {
        fill: #48a9c5;
      }

      .cls-93 {
        fill: #6d67b8;
      }

      .cls-94 {
        fill: #54a0c4;
      }

      .cls-133 {
        fill: #000;
        font-size: 55.46px;
      }

      .cls-95 {
        fill: #4cb5cb;
      }

      .cls-96 {
        fill: #468fb8;
      }

      .cls-97 {
        fill: #43acc6;
      }

      .cls-98 {
        fill: #6e40af;
      }

      .cls-99 {
        fill: #437cbf;
      }

      .cls-100 {
        fill: #9ad2df;
      }

      .cls-101 {
        fill: #3794c6;
      }

      .cls-102 {
        fill: #49b3c8;
      }

      .cls-103 {
        fill: #3bb1c8;
      }

      .cls-104 {
        fill: #1ccace;
      }

      .cls-105 {
        fill: #0fdbd1;
      }

      .cls-106 {
        fill: #60a0bd;
      }

      .cls-107 {
        fill: #4594c4;
      }

      .cls-108 {
        fill: #52a7c5;
      }

      .cls-109 {
        fill: #2ca1c4;
      }

      .cls-110 {
        fill: #7a9cc7;
      }

      .cls-111 {
        fill: #4fb5c8;
      }

      .cls-132 {
        letter-spacing: 0em;
      }

      .cls-112 {
        fill: #3bb1cd;
      }

      .cls-113 {
        fill: #2c9fc4;
      }

      .cls-114 {
        fill: #29d4cf;
      }

      .cls-115 {
        fill: #6347b3;
      }

      .cls-116 {
        fill: #1fb6cb;
      }

      .cls-117 {
        fill: #5165b8;
      }

      .cls-118 {
        fill: #75afc7;
      }

      .cls-119 {
        fill: #5c90c0;
      }

      .cls-120 {
        fill: #38c3cb;
      }

      .cls-121 {
        fill: #30b0c7;
      }

      .cls-122 {
        fill: #3da9c4;
      }

      .cls-123 {
        fill: #3b9ec5;
      }

      .cls-124 {
        fill: #5166b6;
      }

      .cls-125 {
        fill: #33adc6;
      }
    </style>
  </defs>
  <g id="_8lJZ1k.tif" data-name="8lJZ1k.tif">
    <g>
      <path class="cls-47" d="M45.99,211.22c.07,5.62-4.39,10.16-10.01,10.2-5.52.04-10.31-4.62-10.28-10.02.03-5.79,4.48-10.3,10.21-10.35,5.57-.05,10,4.43,10.07,10.17Z"/>
      <path class="cls-90" d="M52.6,221.14c5.63.05,10.01,4.44,9.95,9.97-.07,5.64-4.42,10-9.96,10.01-5.73,0-10.12-4.43-10.07-10.15.06-5.62,4.41-9.87,10.08-9.83Z"/>
      <path class="cls-45" d="M32.96,188.77c-.05,5.58-4.58,10.16-9.96,10.06-5.91-.11-10.13-4.35-10.08-10.12.05-5.64,4.61-10.08,10.27-10,5.26.07,9.81,4.76,9.76,10.06Z"/>
      <path class="cls-33" d="M14.15,154.56c5.48.05,9.85,4.4,9.84,9.82,0,5.57-4.26,9.99-9.65,10-5.87.01-10.36-4.44-10.28-10.2.08-5.31,4.64-9.66,10.09-9.62Z"/>
      <path class="cls-52" d="M72.46,257.61c-5.76-.06-9.96-4.23-9.95-9.9,0-5.64,4.5-9.89,10.34-9.8,5.28.09,9.6,4.73,9.51,10.19-.09,5.24-4.58,9.55-9.89,9.5Z"/>
      <path class="cls-116" d="M19.07,139.14c-.04,5.37-4.11,9.4-9.49,9.41-5.37.01-9.65-4.42-9.58-9.92.07-5.26,4.27-9.26,9.69-9.21,5.51.05,9.42,4.1,9.37,9.72Z"/>
      <path class="cls-117" d="M85.36,260.83c0-5.32,4.25-9.74,9.29-9.67,5.64.08,9.74,4.19,9.77,9.79.03,4.95-4.38,9.38-9.38,9.42-5.38.05-9.68-4.2-9.68-9.55Z"/>
      <path class="cls-85" d="M.45,113.15c-.03-5.25,4.27-9.54,9.5-9.49,4.38.04,8.87,4.47,8.96,8.84.11,5.48-4.15,9.91-9.45,9.83-4.88-.07-8.98-4.25-9.01-9.18Z"/>
      <path class="cls-56" d="M119.16,260.45c5.04-.01,9.17,3.94,9.24,8.85.08,5.26-3.98,9.47-9.16,9.51-5.02.03-9.19-4.11-9.22-9.17-.03-5.07,4.05-9.17,9.15-9.19Z"/>
      <path class="cls-66" d="M22.61,87.57c-.05,5.13-3.55,8.57-8.69,8.53-4.92-.04-8.48-3.78-8.42-8.85.06-4.72,3.87-8.34,8.76-8.29,4.91.05,8.39,3.64,8.35,8.61Z"/>
      <path class="cls-109" d="M50.62,170.35c.08,4.89-3.5,8.63-8.31,8.7-4.8.06-8.81-3.68-8.84-8.27-.04-5.28,3.43-8.85,8.65-8.9,4.92-.04,8.42,3.44,8.5,8.47Z"/>
      <path class="cls-77" d="M144.8,282.61c-4.6.04-8.67-3.77-8.7-8.16-.04-4.89,3.78-8.89,8.53-8.93,4.76-.04,8.72,3.93,8.71,8.75,0,4.5-3.9,8.3-8.54,8.34Z"/>
      <path class="cls-15" d="M44.63,148.56c-.04,5-3.54,8.53-8.42,8.5-4.73-.02-8.71-3.96-8.63-8.54.08-4.8,4.02-8.56,8.91-8.5,4.72.06,8.18,3.68,8.14,8.54Z"/>
      <path class="cls-72" d="M60.09,190.99c0,4.76-3.71,8.5-8.47,8.52-4.62.02-8.55-3.92-8.55-8.58,0-4.55,3.85-8.44,8.36-8.44,5.09,0,8.65,3.48,8.65,8.49Z"/>
      <path class="cls-21" d="M42.63,125.98c-.02,4.85-3.52,8.47-8.22,8.5-4.85.03-8.52-3.61-8.54-8.48-.02-4.89,3.6-8.5,8.49-8.46,4.75.03,8.29,3.64,8.27,8.44Z"/>
      <path class="cls-53" d="M56.35,209.43c.03-4.71,3.68-8.34,8.38-8.34,4.49,0,8.35,3.95,8.31,8.5-.04,4.74-3.72,8.45-8.34,8.41-4.87-.04-8.38-3.64-8.35-8.58Z"/>
      <path class="cls-54" d="M44.44,103.31c0,4.66-3.53,8.21-8.19,8.25-4.61.04-8.23-3.59-8.19-8.21.04-4.58,3.63-8.15,8.29-8.22,4.2-.07,8.1,3.88,8.1,8.18Z"/>
      <path class="cls-99" d="M80.86,233.63c-4.76.03-8.27-3.36-8.3-8.02-.03-4.59,3.55-8.13,8.23-8.13,4.47,0,8.05,3.58,8.05,8.06,0,4.55-3.46,8.05-7.98,8.08Z"/>
      <path class="cls-28" d="M22.89,71.05c-4.5-.02-7.86-3.54-7.85-8.23,0-3.97,3.78-7.73,7.68-7.66,4.34.08,8.18,3.74,8.18,7.83,0,4.6-3.46,8.09-8.02,8.06Z"/>
      <path class="cls-16" d="M34.41,81.21c.1-4.26,3.63-7.64,7.94-7.59,4.21.04,7.7,3.8,7.64,8.23-.06,4.13-3.77,7.65-8.01,7.61-4.24-.04-7.67-3.79-7.56-8.24Z"/>
      <path class="cls-115" d="M170.79,266.39c4.35.03,7.7,3.47,7.64,7.85-.06,4.28-3.6,7.77-7.85,7.73-4.32-.04-7.76-3.52-7.74-7.81.02-4.55,3.35-7.81,7.95-7.77Z"/>
      <path class="cls-44" d="M91.52,238.8c-.02-4.61,3.24-7.92,7.79-7.91,4.38,0,7.73,3.38,7.72,7.77,0,4.27-3.53,7.75-7.83,7.74-4.13,0-7.66-3.5-7.68-7.6Z"/>
      <path class="cls-35" d="M51.66,68.18c-4.23,0-7.22-2.94-7.23-7.15,0-4.2,3.22-7.47,7.34-7.45,4,.03,7.18,3.24,7.24,7.31.06,4.35-2.89,7.27-7.34,7.28Z"/>
      <path class="cls-23" d="M127.01,248.14c.02,4.04-3.16,7.27-7.2,7.31-3.99.04-7.29-3.23-7.31-7.22-.02-4.05,3.16-7.24,7.23-7.26,4.1-.01,7.26,3.1,7.28,7.17Z"/>
      <path class="cls-8" d="M49.51,126.5c.02-4.16,2.93-7.06,7.08-7.05,3.9,0,7.28,3.17,7.24,6.77-.05,4.24-3.32,7.47-7.48,7.39-3.79-.07-6.87-3.27-6.85-7.11Z"/>
      <path class="cls-50" d="M51.03,144.61c.01-3.66,3.38-6.92,7.17-6.93,3.81,0,7.24,3.45,7.17,7.21-.08,3.79-3.3,7.02-7.04,7.06-3.9.04-7.31-3.38-7.29-7.34Z"/>
      <path class="cls-11" d="M65.02,108.29c-.03,3.96-2.98,6.82-7.02,6.82-3.95,0-6.98-2.99-7.01-6.89-.02-4,3.05-7.12,7.05-7.16,3.85-.03,7,3.23,6.97,7.23Z"/>
      <path class="cls-105" d="M42.91,40.95c0,3.76-3.13,6.69-7.16,6.67-3.85-.02-6.79-2.95-6.78-6.75,0-4.09,2.96-7.12,6.99-7.17,3.85-.04,6.94,3.18,6.95,7.25Z"/>
      <path class="cls-113" d="M62.67,169.59c-4.07-.07-6.9-3.09-6.81-7.27.08-3.83,3.2-6.73,7.19-6.71,3.56.02,6.73,3.3,6.73,6.95,0,4.02-3.1,7.1-7.11,7.03Z"/>
      <path class="cls-101" d="M70.39,172.58c3.76.05,6.71,3.11,6.67,6.9-.04,3.94-3.13,6.98-6.98,6.87-3.9-.11-6.71-3.15-6.65-7.2.05-3.71,3.14-6.62,6.96-6.57Z"/>
      <path class="cls-71" d="M62.42,83.46c4.01-.02,7.06,3.09,7.01,7.13-.04,3.39-3.33,6.5-6.89,6.53-3.79.03-7.09-3.23-7.02-6.94.07-3.78,3.07-6.71,6.9-6.72Z"/>
      <path class="cls-69" d="M202.98,269.88c-.04,3.78-3.01,6.64-6.9,6.63-3.89-.01-6.88-3.11-6.78-7.03.09-3.77,3.08-6.64,6.92-6.64,3.88,0,6.8,3.05,6.76,7.04Z"/>
      <path class="cls-60" d="M64.71,49.08c-3.87,0-6.76-2.95-6.7-6.83.05-3.63,3.09-6.63,6.71-6.63,3.58,0,6.7,3.22,6.71,6.92.01,3.65-2.97,6.55-6.72,6.54Z"/>
      <path class="cls-49" d="M69.72,80.04c-3.64.02-6.54-2.92-6.57-6.66-.03-3.57,3.1-6.73,6.62-6.71,3.56.03,6.71,3.15,6.7,6.66-.01,3.93-2.78,6.69-6.74,6.72Z"/>
      <path class="cls-40" d="M73.82,194.83c0-3.8,2.83-6.67,6.58-6.66,3.54,0,6.54,2.97,6.57,6.49.03,3.78-2.79,6.73-6.51,6.8-3.65.08-6.64-2.91-6.64-6.63Z"/>
      <path class="cls-27" d="M141.58,260.62c-3.62.02-6.54-2.86-6.54-6.43,0-3.79,2.87-6.72,6.56-6.7,3.81.03,6.67,2.85,6.67,6.58,0,3.76-2.84,6.54-6.69,6.55Z"/>
      <path class="cls-43" d="M86.07,58.04c-.03,3.57-2.77,6.38-6.28,6.42-3.51.05-6.39-2.96-6.34-6.62.05-3.48,2.88-6.25,6.42-6.29,3.35-.03,6.22,2.97,6.19,6.48Z"/>
      <path class="cls-39" d="M99.12,208.19c.01,3.71-2.5,6.26-6.22,6.32-3.47.06-6.36-2.83-6.31-6.31.04-3.43,2.74-6.13,6.17-6.19,3.62-.07,6.35,2.59,6.36,6.18Z"/>
      <path class="cls-104" d="M98.04,44.28c0,3.09-2.59,6.05-5.37,6.14-3.62.12-6.31-2.51-6.29-6.14.01-3.42,2.41-5.79,5.81-5.75,3.46.04,5.84,2.38,5.85,5.75Z"/>
      <path class="cls-57" d="M113.34,219.62c0,3.14-2.75,5.8-5.97,5.79-3.11,0-5.88-2.87-5.82-6,.06-3.15,2.89-5.87,6.03-5.8,3.22.07,5.77,2.73,5.76,6.01Z"/>
      <path class="cls-58" d="M80.65,32.14c-3.29,0-5.71-2.37-5.74-5.59-.03-3.5,2.47-6.05,5.89-6,3.32.04,5.69,2.37,5.71,5.62.03,3.62-2.29,5.98-5.86,5.97Z"/>
      <path class="cls-25" d="M52.5,26.62c-3.28,0-5.71-2.6-5.78-6.17-.05-2.74,3.01-5.48,6.05-5.41,2.99.07,5.62,2.66,5.63,5.55.02,3.5-2.46,6.03-5.91,6.02Z"/>
      <path class="cls-46" d="M164.47,250.38c3.37.16,5.75,2.76,5.54,6.07-.2,3.18-2.78,5.51-6.02,5.43-3.25-.08-5.67-2.77-5.52-6.15.13-3.19,2.73-5.5,6-5.35Z"/>
      <path class="cls-4" d="M77.66,115.48c-3.05.02-5.57-2.44-5.59-5.45-.03-3.25,2.37-5.84,5.44-5.89,3.17-.05,5.88,2.59,5.9,5.77.02,3.1-2.52,5.55-5.75,5.57Z"/>
      <path class="cls-38" d="M214.87,260.77c.02-3.2,2.58-5.71,5.74-5.65,3.2.07,5.53,2.57,5.49,5.89-.04,3.06-2.53,5.5-5.61,5.5-3.22,0-5.65-2.48-5.62-5.75Z"/>
      <path class="cls-70" d="M86.93,95.65c.04,3.07-2.58,5.75-5.63,5.75-3,0-5.42-2.49-5.45-5.61-.03-3.16,2.3-5.66,5.31-5.68,3.29-.02,5.72,2.31,5.76,5.53Z"/>
      <path class="cls-64" d="M81.9,124.31c-.04,2.93-2.69,5.64-5.53,5.65-3.02,0-5.81-2.79-5.74-5.75.07-2.89,2.88-5.62,5.7-5.55,2.97.07,5.61,2.75,5.57,5.65Z"/>
      <path class="cls-20" d="M92.59,82.43c-.03,3.19-2.42,5.6-5.48,5.54-3.11-.06-5.59-2.56-5.54-5.56.06-3.17,2.41-5.47,5.57-5.47,3.27,0,5.47,2.22,5.44,5.49Z"/>
      <path class="cls-2" d="M82.6,138.98c-.03,3.13-2.47,5.49-5.57,5.4-2.97-.08-5.42-2.5-5.46-5.37-.03-3.21,2.45-5.65,5.68-5.57,3.32.08,5.39,2.22,5.35,5.54Z"/>
      <path class="cls-62" d="M101.41,32.98c-.02-3.14,2.11-5.35,5.2-5.39,3.13-.04,5.41,2.31,5.39,5.56-.02,2.91-2.48,5.32-5.42,5.31-2.84-.01-5.15-2.46-5.17-5.48Z"/>
      <path class="cls-14" d="M100.36,70.08c0,2.99-2.37,5.42-5.34,5.45-2.93.03-5.42-2.41-5.46-5.35-.04-2.9,2.65-5.53,5.62-5.5,2.64.02,5.16,2.65,5.17,5.4Z"/>
      <path class="cls-17" d="M85.57,153.02c.03,2.93-2.23,5.4-4.98,5.44-3.21.05-5.52-2.15-5.61-5.35-.08-2.9,2.35-5.44,5.25-5.49,2.89-.04,5.32,2.41,5.35,5.39Z"/>
      <path class="cls-30" d="M128.97,228.18c.02,3.01-2.33,5.37-5.33,5.34-2.95-.03-5.19-2.25-5.23-5.17-.04-3.2,2.03-5.35,5.19-5.39,3.15-.04,5.35,2.1,5.36,5.21Z"/>
      <path class="cls-74" d="M104.37,64.47c-2.68-.05-4.96-2.47-4.92-5.21.03-2.87,2.43-5.26,5.22-5.19,2.87.07,5.22,2.42,5.23,5.22,0,2.85-2.54,5.24-5.52,5.18Z"/>
      <path class="cls-32" d="M85.7,171.64c-2.93.04-5.16-2.05-5.2-4.86-.04-3.03,2.07-5.22,5.08-5.28,2.76-.05,5.27,2.29,5.27,4.91,0,3.04-2.12,5.2-5.15,5.24Z"/>
      <path class="cls-63" d="M104.07,13.5c0,2.61-2.1,4.69-4.74,4.67-2.65-.02-4.86-2.07-4.89-4.55-.04-3,1.94-5.05,4.88-5.06,2.69,0,4.74,2.12,4.75,4.95Z"/>
      <path class="cls-83" d="M115.81,54.7c-2.71-.02-4.77-1.98-4.8-4.59-.04-2.63,2.28-5.02,4.83-4.98,2.7.04,5.03,2.31,4.97,4.85-.07,2.76-2.16,4.74-5,4.72Z"/>
      <path class="cls-59" d="M93.36,174.41c2.5.12,4.53,2.25,4.48,4.71-.05,2.77-2.44,4.99-5.21,4.84-2.49-.14-4.51-2.42-4.47-5.05.05-2.65,2.34-4.63,5.19-4.49Z"/>
      <path class="cls-55" d="M191.53,254.21c-.03,2.65-2.07,4.67-4.75,4.69-2.64.02-4.87-2.31-4.78-4.99.09-2.59,2.27-4.58,4.95-4.52,2.73.07,4.61,2.04,4.58,4.82Z"/>
      <path class="cls-81" d="M127.5,23.99c.06,2.76-2.1,5.01-4.8,5-2.33-.01-4.66-2.36-4.66-4.68,0-2.64,1.89-4.66,4.45-4.77,2.71-.12,4.95,1.88,5.01,4.46Z"/>
      <path class="cls-124" d="M141.25,238.65c-2.89.04-4.76-1.75-4.78-4.56-.02-2.57,1.95-4.56,4.55-4.6,2.63-.04,4.57,1.84,4.63,4.49.06,2.66-1.8,4.63-4.4,4.66Z"/>
      <path class="cls-91" d="M128.3,47.09c-2.45-.05-4.39-2.04-4.36-4.48.03-2.61,2.01-4.56,4.6-4.52,2.4.03,4.4,2.1,4.37,4.52-.03,2.65-1.97,4.53-4.61,4.48Z"/>
      <path class="cls-82" d="M102.18,185.96c2.5-.04,4.53,1.86,4.57,4.27.04,2.49-2.06,4.66-4.52,4.64-2.35-.01-4.35-2.06-4.37-4.47-.02-2.53,1.8-4.39,4.32-4.43Z"/>
      <path class="cls-84" d="M72.63,0c2.55.02,4.36,1.89,4.28,4.42-.08,2.29-2.24,4.23-4.67,4.18-2.37-.05-4.19-1.89-4.18-4.26C68.06,1.57,69.74-.02,72.63,0Z"/>
      <path class="cls-98" d="M243.14,243.5c2.34.04,4.24,2.01,4.19,4.37-.04,2.4-1.94,4.21-4.36,4.16-2.47-.05-4.17-1.83-4.15-4.33.02-2.41,1.9-4.24,4.31-4.2Z"/>
      <path class="cls-88" d="M146.03,37.24c-.03,2.58-1.63,4.18-4.19,4.2-2.17.02-4.09-1.93-4.1-4.15,0-2.19,1.9-4.16,4.06-4.2,2.46-.04,4.25,1.72,4.23,4.15Z"/>
      <path class="cls-65" d="M105.4,89.86c-.03,2.16-2.06,4.1-4.23,4.05-2.06-.04-4.09-2-4.11-3.94-.01-2.3,1.94-4.27,4.26-4.32,2.1-.04,4.1,2.03,4.07,4.21Z"/>
      <path class="cls-29" d="M109.06,199.83c.1-2.34,1.92-3.97,4.3-3.86,2.33.11,3.9,1.94,3.74,4.38-.14,2.27-1.85,3.8-4.14,3.71-2.41-.1-4.01-1.84-3.9-4.23Z"/>
      <path class="cls-121" d="M96.43,103.94c-2.02-.04-3.94-2.03-3.93-4.07.02-2.23,1.98-4.25,4.09-4.2,2.33.06,4.04,1.86,3.98,4.2-.06,2.35-1.86,4.12-4.14,4.07Z"/>
      <path class="cls-125" d="M89.46,110.31c.05-2.36,1.78-3.91,4.25-3.82,2.11.08,3.82,1.97,3.72,4.13-.1,2.28-1.8,3.92-4,3.88-2.34-.05-4.02-1.82-3.97-4.18Z"/>
      <path class="cls-41" d="M107.3,84.55c-2.2-.03-3.87-1.74-3.85-3.97.02-2.42,1.72-4.14,4.01-4.07,2.24.07,3.98,1.95,3.92,4.25-.05,2.11-1.89,3.81-4.08,3.79Z"/>
      <path class="cls-48" d="M95.81,121.41c-.04,2.14-1.88,3.98-3.96,3.97-2.01,0-3.93-2.05-3.83-4.08.11-2.23,1.87-3.84,4.1-3.76,2.16.08,3.73,1.73,3.69,3.87Z"/>
      <path class="cls-80" d="M136.36,17.87c.07-2.15,1.93-3.87,4.04-3.74,2.1.13,3.67,1.97,3.62,4.23-.05,2.15-1.83,3.75-4.1,3.68-2.12-.06-3.64-1.84-3.57-4.18Z"/>
      <path class="cls-34" d="M118.59,72.29c0,2.53-1.34,3.88-3.79,3.84-2.21-.03-3.83-1.55-3.87-3.64-.05-2.28,1.56-3.99,3.78-4.02,2.37-.03,3.88,1.46,3.88,3.81Z"/>
      <path class="cls-6" d="M159.27,233.17c2.02-.04,3.73,1.71,3.76,3.85.04,2.24-1.64,3.88-3.96,3.87-1.94,0-3.59-1.66-3.66-3.67-.08-2.15,1.69-4.01,3.86-4.05Z"/>
      <path class="cls-78" d="M127.09,65.28c0,2.3-1.47,3.82-3.7,3.82-2.12,0-3.88-1.71-3.86-3.76.01-2.14,1.66-3.8,3.79-3.83,2.17-.03,3.77,1.57,3.77,3.77Z"/>
      <path class="cls-75" d="M92.13,136.43c-2.02,0-3.79-1.79-3.79-3.84,0-2.17,1.61-3.88,3.67-3.9,1.86-.02,3.81,1.76,3.87,3.52.07,2.15-1.77,4.21-3.74,4.22Z"/>
      <path class="cls-123" d="M97.54,143.6c-.04,2.11-1.57,3.58-3.65,3.52-2.12-.06-3.74-1.58-3.76-3.53-.02-1.98,1.85-3.92,3.76-3.9,2.08.02,3.7,1.76,3.66,3.91Z"/>
      <path class="cls-73" d="M129.34,59.64c-.04-2.19,1.32-3.64,3.44-3.69,2.24-.05,3.76,1.44,3.76,3.69,0,2.12-1.65,3.79-3.77,3.79-2.02,0-3.4-1.52-3.44-3.78Z"/>
      <path class="cls-114" d="M116.36,3.68c0-2.09,1.33-3.5,3.32-3.54,2.09-.04,3.86,1.71,3.82,3.77-.04,1.93-1.8,3.62-3.74,3.6-1.91-.03-3.41-1.71-3.4-3.83Z"/>
      <path class="cls-7" d="M159.84,33.99c.07,1.89-1.66,3.65-3.61,3.67-1.88.02-3.55-1.49-3.69-3.33-.14-1.91,1.51-3.7,3.48-3.78,1.95-.08,3.75,1.54,3.82,3.44Z"/>
      <path class="cls-19" d="M208.87,251.78c-1.92,0-3.53-1.54-3.58-3.42-.06-2.13,1.41-3.68,3.49-3.68,2.09,0,3.68,1.6,3.62,3.6-.06,1.89-1.69,3.5-3.53,3.5Z"/>
      <path class="cls-31" d="M128.95,208.05c-.05,1.85-1.73,3.45-3.56,3.39-2.09-.07-3.57-1.62-3.52-3.72.04-1.98,1.54-3.39,3.57-3.35,2.13.04,3.57,1.54,3.51,3.67Z"/>
      <path class="cls-41" d="M146.55,55.43c.02,2.01-1.42,3.57-3.3,3.59-1.87.01-3.58-1.56-3.65-3.35-.07-1.89,1.63-3.62,3.57-3.64,2.06-.02,3.36,1.29,3.38,3.4Z"/>
      <path class="cls-22" d="M97.31,157.48c-2.11-.05-3.45-1.52-3.39-3.73.05-1.91,1.58-3.25,3.63-3.17,1.77.06,3.23,1.6,3.23,3.4,0,1.87-1.65,3.54-3.46,3.5Z"/>
      <path class="cls-67" d="M153.77,49.6c1.85-.04,3.32,1.39,3.31,3.23-.02,1.98-1.08,3.08-3.01,3.23-1.76.13-3.42-1.49-3.43-3.2,0-1.61,1.54-3.22,3.14-3.26Z"/>
      <path class="cls-107" d="M102.66,167.04c-2.52.08-3.49-1.22-3.6-3.05-.13-1.99,1.2-3.04,3.05-3.27,1.75-.22,3.38,1.42,3.35,3.25-.03,2.08-1.41,2.81-2.79,3.07Z"/>
      <path class="cls-10" d="M170.86,36.15c-1.93.09-2.98-.95-3.24-2.72-.22-1.52,1.45-3.25,3.08-3.25,1.92,0,2.93,1.28,3.02,2.97.09,1.77-.98,2.89-2.87,3Z"/>
      <path class="cls-61" d="M105.55,173.27c.18-2.04,1.17-3.18,3.01-3.21,1.87-.03,2.91,1.12,2.94,2.98.03,1.82-1.14,2.78-2.79,2.89-1.86.12-2.83-1.07-3.16-2.66Z"/>
      <path class="cls-87" d="M138.7,216.6c-1.87-.11-2.84-1.09-2.81-2.99.03-1.78,1.08-2.82,2.74-2.88,1.81-.06,2.93,1.02,2.97,2.9.03,1.89-1.02,2.85-2.9,2.97Z"/>
      <path class="cls-112" d="M164.94,54.75c-1.73-.22-2.91-1.04-2.89-2.85.02-1.87,1.1-2.91,3.02-2.88,1.95.03,2.93,1.16,2.85,3.03-.08,1.81-1.29,2.57-2.97,2.7Z"/>
      <path class="cls-120" d="M155.46,14.59c.11-1.27.95-2.35,2.73-2.46,1.52-.1,3.38,1.71,3.15,3.19-.26,1.7-1.53,2.55-3.15,2.67-1.45.1-2.76-1.43-2.74-3.4Z"/>
      <path class="cls-93" d="M174.87,237.14c.09-1.96,1.15-3.01,2.97-3.02,1.78,0,2.71,1.21,2.72,2.9.02,1.76-1.08,2.83-2.79,2.83-1.68,0-2.73-1.01-2.9-2.72Z"/>
      <path class="cls-102" d="M114.61,96c-1.56-.23-2.44-1.22-2.42-2.68.02-1.59,1.03-2.69,2.69-2.65,1.64.04,2.58,1.08,2.54,2.75-.04,1.77-1.32,2.31-2.81,2.58Z"/>
      <path class="cls-9" d="M119.64,84.95c1.66.12,2.65,1.13,2.63,2.68-.02,1.44-.99,2.46-2.56,2.45-1.72,0-2.55-1.15-2.59-2.7-.04-1.54.91-2.39,2.51-2.43Z"/>
      <path class="cls-1" d="M116.55,178.5c1.37.34,2.42,1.07,2.2,2.71-.19,1.5-1.08,2.43-2.69,2.3-1.53-.12-2.54-1.06-2.45-2.57.1-1.58,1.17-2.48,2.93-2.44Z"/>
      <path class="cls-26" d="M178.53,52.72c-.08,1.56-.99,2.36-2.53,2.33-1.57-.03-2.48-1-2.46-2.5.02-1.45.76-2.54,2.42-2.51,1.67.04,2.56.92,2.57,2.68Z"/>
      <path class="cls-12" d="M108.38,99.24c.15-1.36,1.11-2.12,2.48-2.04,1.63.09,2.57,1.17,2.42,2.82-.14,1.55-1.16,2.31-2.74,2.12-1.62-.19-2.2-1.25-2.15-2.91Z"/>
      <path class="cls-103" d="M122.86,82.47c.06-1.54.84-2.53,2.43-2.49,1.48.04,2.59.92,2.55,2.47-.04,1.47-.99,2.48-2.54,2.54-1.64.07-2.34-.95-2.44-2.52Z"/>
      <path class="cls-111" d="M131.56,75.58c1.45.28,2.42,1.1,2.45,2.64.03,1.46-.8,2.34-2.3,2.34-1.55,0-2.57-.84-2.62-2.38-.05-1.53.9-2.4,2.47-2.6Z"/>
      <path class="cls-92" d="M107.96,113.63c0,1.8-1.02,2.59-2.46,2.72-1.55.14-2.27-1.01-2.32-2.32-.07-1.48.74-2.51,2.39-2.5,1.48,0,2.23.84,2.4,2.1Z"/>
      <path class="cls-68" d="M105.32,106.89c.05-1.57.53-2.7,2.1-2.71,1.48,0,2.54.73,2.6,2.36.06,1.44-.57,2.43-2.11,2.52-1.6.09-2.43-.78-2.6-2.17Z"/>
      <path class="cls-24" d="M104.12,123.66c-1.34-.15-2.13-.97-2.06-2.44.07-1.5.99-2.26,2.44-2.15,1.42.11,2.31,1.03,2.25,2.44-.05,1.45-1.04,2.16-2.64,2.15Z"/>
      <path class="cls-18" d="M145.59,74.69c-1.44-.04-2.49-.71-2.51-2.16-.02-1.37.86-2.41,2.27-2.46,1.46-.06,2.58.66,2.58,2.33,0,1.51-.91,2.2-2.34,2.3Z"/>
      <path class="cls-122" d="M140.61,75.21c0,1.25-.84,1.98-2.35,1.88-1.44-.09-2.37-.86-2.29-2.39.07-1.48.93-2.25,2.45-2.23,1.58.02,2.22.91,2.2,2.73Z"/>
      <path class="cls-51" d="M153.72,73.15c-2.28.02-3.08-.85-3.06-2.27.02-1.27.79-2.22,2.15-2.24,1.41-.02,2.44.82,2.48,2.21.05,1.37-.81,2.28-1.58,2.3Z"/>
      <path class="cls-108" d="M106.55,128.88c-.11,1.33-.74,2.2-2.12,2.25-1.46.05-2.43-.71-2.41-2.19.02-1.4.89-2.31,2.37-2.3,1.4.02,1.99.95,2.16,2.23Z"/>
      <path class="cls-89" d="M152.87,219.56c-1.14-.19-2.08-.74-2.05-2.18.04-1.49.87-2.36,2.33-2.26,1.29.09,2.16.96,2.08,2.3-.07,1.29-.85,2.1-2.37,2.14Z"/>
      <path class="cls-95" d="M185.26,36.96c-1.29-.2-2.3-.69-2.3-2.15,0-1.48.76-2.36,2.28-2.31,1.36.04,2.19.86,2.17,2.2-.02,1.32-.84,2.09-2.15,2.26Z"/>
      <path class="cls-119" d="M127.06,187.79c-.12,1.41-.88,2.24-2.25,2.14-1.22-.09-1.95-.9-1.89-2.19.07-1.38.86-2.17,2.24-2.11,1.29.06,1.85.95,1.9,2.16Z"/>
      <path class="cls-94" d="M105.18,134.4c1.27.18,2.21.71,2.13,2.05-.07,1.17-.66,2.09-2,2.12-1.46.04-2.16-.88-2.19-2.18-.02-1.3.92-1.84,2.06-1.99Z"/>
      <path class="cls-3" d="M188.95,55.51c-.07.82-.86,1.56-2.21,1.48-1.24-.08-1.91-.88-1.88-2.15.03-1.44.94-2.13,2.23-2.04,1.16.08,1.97.8,1.86,2.71Z"/>
      <path class="cls-97" d="M158.45,70.4c.17-1.2.87-1.88,2.15-1.88,1.36,0,2.01.79,1.94,2.05-.07,1.23-.83,2.04-2.11,2-1.26-.04-1.94-.82-1.98-2.16Z"/>
      <path class="cls-79" d="M168.1,69.32c1.04.06,1.82.56,1.83,1.78,0,1.14-.62,1.88-1.79,1.95-1.31.08-2-.7-2.05-1.94-.05-1.26.82-1.68,2.02-1.79Z"/>
      <path class="cls-37" d="M107.15,141.95c1.25.1,1.88.73,1.86,1.9-.03,1.21-.8,1.76-1.92,1.77-1.21,0-1.74-.75-1.75-1.9-.01-1.26.78-1.68,1.81-1.77Z"/>
      <path class="cls-13" d="M177.33,72.64c-.16,1.17-.76,1.79-1.81,1.87-1.18.09-1.65-.64-1.68-1.69-.03-1.08.49-1.75,1.63-1.75,1.1,0,1.59.72,1.86,1.57Z"/>
      <path class="cls-96" d="M111.83,150.57c-.22.94-.56,1.79-1.65,1.89-1.05.1-1.76-.41-1.82-1.52-.06-1.05.45-1.78,1.52-1.87,1.04-.09,1.68.5,1.94,1.51Z"/>
      <path class="cls-110" d="M136.34,193.36c-.27.93-.79,1.66-1.87,1.5-1.03-.15-1.54-.91-1.47-1.93.07-.98.71-1.47,1.66-1.39,1.04.09,1.56.76,1.68,1.81Z"/>
      <path class="cls-76" d="M184.06,75.24c0,.97-.31,1.7-1.32,1.79-1.06.09-1.73-.46-1.77-1.54-.04-.98.65-1.49,1.52-1.61.97-.13,1.51.43,1.57,1.36Z"/>
      <path class="cls-106" d="M115.4,157.18c-.11,1.04-.56,1.7-1.52,1.73-.98.03-1.46-.6-1.5-1.55-.04-1,.51-1.55,1.45-1.59,1.01-.05,1.38.67,1.57,1.42Z"/>
      <path class="cls-86" d="M119.93,163.34c-.11.91-.69,1.28-1.54,1.25-.76-.02-1.26-.47-1.28-1.23-.03-.9.53-1.37,1.39-1.38.88-.01,1.37.47,1.42,1.36Z"/>
      <path class="cls-118" d="M190.48,78.37c0,1.5-.51,1.93-1.21,1.94-.83.01-1.4-.47-1.33-1.38.05-.73.49-1.27,1.23-1.28.86,0,1.32.53,1.32.72Z"/>
      <path class="cls-100" d="M196.99,57.03c1.36.01,2.01.6,2.01,1.83,0,1.11-.57,1.7-1.67,1.73-1.22.04-1.86-.55-1.85-1.8,0-1.11.58-1.67,1.51-1.76Z"/>
      <path class="cls-36" d="M195.34,84.53c-.59-.04-.87-.4-.9-.95-.02-.56.22-.97.82-.99.68-.02,1.09.36,1.05,1.05-.03.55-.4.86-.97.89Z"/>
      <path class="cls-42" d="M124.95,168.25c.02.62-.27,1.07-.77,1.17-.69.14-1.07-.31-1.13-.97-.06-.6.28-.91.86-.94.56-.03.93.21,1.04.74Z"/>
      <path class="cls-5" d="M198.43,58.82c-.09.76-.48,1.23-1.27,1.19-.65-.03-1.07-.42-1.11-1.09-.05-.78.35-1.28,1.13-1.31.77-.03,1.19.44,1.26,1.21Z"/>
    </g>
  </g>
  <text class="cls-133" transform="translate(155.87 158.92)"><tspan class="cls-128" x="0" y="0">H</tspan><tspan class="cls-129" x="40.04" y="0">i</tspan><tspan class="cls-127" x="52.91" y="0">s</tspan><tspan class="cls-126" x="78.92" y="0">t</tspan><tspan class="cls-130" x="96.23" y="0">o</tspan><tspan class="cls-131" x="126.73" y="0">J</tspan><tspan class="cls-132" x="148.92" y="0">S</tspan></text>
</svg>